<?xml version="1.0" standalone="no"?>
<!DOCTYPE svg PUBLIC "-//W3C//DTD SVG 20010904//EN"
 "http://www.w3.org/TR/2001/REC-SVG-20010904/DTD/svg10.dtd">
<svg version="1.0" xmlns="http://www.w3.org/2000/svg"
 width="2048.000000pt" height="2048.000000pt" viewBox="0 0 2048.000000 2048.000000"
 preserveAspectRatio="xMidYMid meet">

<g transform="translate(0.000000,2048.000000) scale(0.100000,-0.100000)"
fill="#000000" stroke="none">
<path d="M4747 14530 c-1243 -82 -2390 -697 -3145 -1687 -730 -959 -1024
-2192 -806 -3383 303 -1651 1551 -2981 3181 -3388 359 -90 654 -125 1048 -125
301 0 466 13 733 59 1797 307 3217 1743 3506 3545 42 262 51 379 51 689 0 310
-9 427 -51 689 -175 1093 -766 2071 -1659 2748 -530 401 -1193 687 -1851 798
-306 52 -715 74 -1007 55z"/>
<path d="M15240 14534 c-25 -2 -101 -8 -170 -14 -1222 -105 -2374 -766 -3099
-1779 -425 -593 -689 -1281 -776 -2021 -22 -187 -30 -588 -16 -780 93 -1217
661 -2301 1601 -3054 658 -528 1424 -838 2290 -928 185 -19 658 -16 845 6 558
64 1010 198 1490 440 412 208 735 440 1069 766 937 916 1398 2187 1270 3500
-143 1458 -1028 2746 -2344 3410 -463 233 -940 374 -1475 435 -132 15 -587 28
-685 19z"/>
</g>
</svg>
